<?xml version="1.0" encoding="UTF-8"?>
<svg width="888px" height="268px" viewBox="0 0 888 268" version="1.1" xmlns="http://www.w3.org/2000/svg" xmlns:xlink="http://www.w3.org/1999/xlink">
    <!-- Generator: sketchtool 50 (54983) - http://www.bohemiancoding.com/sketch -->
    <title>1B7DA5FF-35F3-414D-A6B6-5ED27962C4E3</title>
    <desc>Created with sketchtool.</desc>
    <defs>
        <linearGradient x1="100%" y1="65.8112288%" x2="0.667920796%" y2="65.8112282%" id="linearGradient-1">
            <stop stop-color="#35809B" offset="0%"></stop>
            <stop stop-color="#25B8A7" offset="100%"></stop>
        </linearGradient>
        <path d="M35.4911761,30.8521702 L38.5079603,30.8521702 L38.5079603,28.0553676 L35.4911761,28.0553676 L35.4911761,30.8521702 Z M31.9257436,30.8521702 L34.942648,30.8521702 L34.942648,28.0553676 L31.9257436,28.0553676 L31.9257436,30.8521702 Z M28.3604314,30.8521702 L31.3772156,30.8521702 L31.3772156,28.0553676 L28.3604314,28.0553676 L28.3604314,30.8521702 Z M24.7949989,30.8521702 L27.8119033,30.8521702 L27.8119033,28.0553676 L24.7949989,28.0553676 L24.7949989,30.8521702 Z M21.2295664,30.8521702 L24.2464708,30.8521702 L24.2464708,28.0553676 L21.2295664,28.0553676 L21.2295664,30.8521702 Z M24.7949989,27.4960071 L27.8119033,27.4960071 L27.8119033,24.6993271 L24.7949989,24.6993271 L24.7949989,27.4960071 Z M28.3604314,27.4960071 L31.3772156,27.4960071 L31.3772156,24.6993271 L28.3604314,24.6993271 L28.3604314,27.4960071 Z M31.9257436,27.4960071 L34.942648,27.4960071 L34.942648,24.6993271 L31.9257436,24.6993271 L31.9257436,27.4960071 Z M31.9257436,24.1399666 L34.942648,24.1399666 L34.942648,21.3431641 L31.9257436,21.3431641 L31.9257436,24.1399666 Z M48.1836397,29.635892 L47.574538,29.2213965 C46.915439,28.7719717 45.401939,28.607252 44.2367375,28.8312904 C44.0867456,27.7123242 43.4751199,26.7420225 42.3628002,25.8649883 L41.7231713,25.4301481 L41.2965116,26.0828987 C40.7501469,26.9230425 40.4772049,28.0869879 40.5666232,29.2032577 C40.6068854,29.5958151 40.7334411,30.2982023 41.1296937,30.9156559 C40.7336814,31.1327083 39.9509112,31.4316304 38.9193563,31.4115307 L19.0782403,31.4115307 L19.0394203,31.6445159 C18.8528919,32.7663009 18.8569782,36.2667162 21.0855838,38.9572598 C22.7797231,41.0022838 25.31961,42.0392578 28.6345752,42.0392578 C35.8210862,42.0392578 41.1378663,38.6658139 43.6276357,32.5338059 C44.6066694,32.5537831 46.7148488,32.5396888 47.797723,30.4298309 C47.8258465,30.38142 47.8908671,30.2548163 48.0800395,29.8551505 L48.1836397,29.635892 Z" id="path-2"></path>
    </defs>
    <g id="Pricing" stroke="none" stroke-width="1" fill="none" fill-rule="evenodd">
        <g id="Habitat-Website-V3/Pricing-Current" transform="translate(-276.000000, -693.000000)">
            <g id="infographic" transform="translate(230.000000, 573.000000)">
                <g id="infogrphic" transform="translate(46.000000, 120.000000)">
                    <g id="habitize" transform="translate(0.000000, 80.000000)">
                        <rect id="Rectangle" fill="#28AFA4" x="104" y="0" width="64" height="64" rx="4"></rect>
                        <circle id="Oval" fill="#5C6670" cx="136" cy="32" r="21"></circle>
                        <circle id="Oval-Copy" fill="#FFFFFF" cx="18" cy="32" r="18"></circle>
                        <text id="Build-the-applicatio" font-family="TitilliumWeb-Regular, Titillium Web" font-size="14" font-weight="normal" fill="#C3C6C8">
                            <tspan x="5.456" y="104">Build the application artifact</tspan>
                        </text>
                        <circle id="Oval-Copy-2" fill="#FFFFFF" cx="136" cy="32" r="8"></circle>
                        <rect id="Rectangle-3" fill="#FFFFFF" x="10" y="31" width="126" height="2"></rect>
                    </g>
                    <g id="arrows" transform="translate(200.000000, 26.000000)" fill="url(#linearGradient-1)">
                        <path d="M53.4142136,85 L136,85 L136,87 L53.4142136,87 L136.133514,169.7193 L134.7193,171.133514 L50.5857864,87 L-2.84217094e-14,87 L-2.84217094e-14,85 L50.5857864,85 L134.7193,0.866486348 L136.133514,2.28069991 L53.4142136,85 Z M448,85 L448,87 L344,87 L344,85 L448,85 Z" id="Combined-Shape"></path>
                    </g>
                    <g id="deploy" transform="translate(361.000000, 0.000000)">
                        <g id="coreos" transform="translate(80.000000, 124.000000)">
                            <rect id="Rectangle-2" stroke="#35839C" stroke-width="4" x="2" y="2" width="60" height="60" rx="8"></rect>
                            <path d="M31.9201629,22 C37.3890859,22 41.8390858,26.6278388 41.8390858,32.3163246 C41.8390858,38.0051329 37.3890859,42.6326493 31.9201629,42.6326493 C26.4496125,42.6326493 22,38.0051329 22,32.3163246 C22,26.6278388 26.44969,22 31.9201629,22 Z M31.8647315,22.7239526 C30.2834581,22.7239526 28.9424321,25.3874493 28.4580585,29.0894188 C28.4425437,29.2085262 28.4275718,29.3290224 28.4143066,29.4503355 C28.346606,30.0522227 28.3020936,30.6567517 28.2808789,31.2624347 C28.2701662,31.5509426 28.2648643,31.8396451 28.2649762,32.1283734 C28.2649762,32.4202601 28.2702513,32.7092876 28.2809565,32.994067 C28.3033755,33.6176245 28.3482134,34.2238633 28.4143842,34.806493 C29.1557613,34.9075464 29.94857,34.9760863 30.7754339,35.0086815 C31.132896,35.0227326 31.4956332,35.0311469 31.864809,35.0311469 C32.2328213,35.0311469 32.596722,35.0226509 32.9530981,35.0086815 C33.7809705,34.9760863 34.5731587,34.9075464 35.3152339,34.806493 C35.396842,34.7954645 35.4772089,34.7834558 35.5585067,34.7710385 C38.6466598,34.3143784 40.7949234,33.3034359 40.7949234,32.1283734 C40.7948458,26.9342118 36.7962814,22.7239526 31.8647315,22.7239526 Z" id="Combined-Shape" fill="#FFFFFF" fill-rule="nonzero"></path>
                            <path d="M35.8378678,29.4892038 C35.7473407,29.3520135 35.6499779,29.2198394 35.5461779,29.0932227 C34.7164367,28.0760243 33.4803095,27.4296445 32.0973552,27.4296445 C31.6490185,27.4296445 31.2497027,28.1433419 30.9941499,29.2515498 C30.892573,29.6935258 30.8137783,30.1975909 30.7629505,30.7448733 C30.7214777,31.2060378 30.7009248,31.6689785 30.7013602,32.1321551 C30.7013602,32.6147341 30.722964,33.0811373 30.7629505,33.5192736 C31.1848914,33.5609386 31.6326782,33.5832417 32.0973552,33.5832417 C32.5614038,33.5832417 33.0091906,33.5608569 33.4311315,33.5192736 C34.3586787,33.427774 35.1594315,33.2423238 35.7266281,32.997889 C36.2867544,32.7568854 36.6182738,32.4568972 36.6182738,32.1321551 C36.6181952,31.1524552 36.3305118,30.2425238 35.8378678,29.4892038 Z" id="Shape" fill="#FFFFFF" fill-rule="nonzero"></path>
                        </g>
                        <g id="docker" transform="translate(0.000000, 80.000000)">
                            <rect id="Rectangle-2" stroke="#35839C" stroke-width="4" x="2" y="2" width="60" height="60" rx="8"></rect>
                            <mask id="mask-3" fill="white">
                                <use xlink:href="#path-2"></use>
                            </mask>
                            <use id="Mask" fill="#FFFFFF" fill-rule="nonzero" xlink:href="#path-2"></use>
                        </g>
                        <g id="helm">
                            <rect id="Rectangle-2" stroke="#35839C" stroke-width="4" x="2" y="2" width="60" height="60" rx="8"></rect>
                            <path d="M24.5491708,26.6079934 C24.9186079,26.1413371 25.3309434,25.7101948 25.7802215,25.3205225 C25.4982981,25.0874893 25.2103084,24.7915977 24.9415036,24.4475432 C24.0914525,23.3595274 23.7551543,22.2018753 24.1903606,21.8618548 C24.625567,21.5218344 25.667474,22.1282044 26.5175251,23.2162202 C26.8039544,23.5828331 27.0320528,23.9573524 27.1919592,24.3058334 C28.5223956,23.5232042 30.0602271,23.0553454 31.7031046,23.0046062 C31.5767277,22.5859896 31.5017905,22.064873 31.5017905,21.5 C31.5017905,20.1192881 31.9495058,19 32.5017905,19 C33.0540753,19 33.5017905,20.1192881 33.5017905,21.5 C33.5017905,22.1014501 33.4168344,22.6532938 33.275286,23.0846209 C34.8845733,23.3002244 36.366293,23.9187353 37.6156432,24.8353514 C37.7451035,24.3585345 38.0470739,23.7780918 38.486056,23.2162202 C39.3361071,22.1282044 40.3780141,21.5218344 40.8132205,21.8618548 C41.2484268,22.2018753 40.9121286,23.3595274 40.0620775,24.4475432 C39.6050283,25.0325395 39.092515,25.478296 38.6486629,25.7125742 C38.9485683,26.0063075 39.2290874,26.319758 39.4881228,26.6508284 L37.9971681,27.995502 C36.6286525,26.1763905 34.4517066,25 32,25 C29.5687559,25 27.4077053,26.1568356 26.0372665,27.9500883 L24.5491708,26.6079934 Z M24.5513752,38.39479 L26.0394257,37.0527357 C27.4099747,38.8443789 29.5700324,40 32,40 C34.4504295,40 36.6263845,38.8248347 37.9950289,37.0073402 L39.4859336,38.3519686 C39.2275071,38.6820075 38.9477236,38.9945199 38.6486629,39.2874258 C39.092515,39.521704 39.6050283,39.9674605 40.0620775,40.5524568 C40.9121286,41.6404726 41.2484268,42.7981247 40.8132205,43.1381452 C40.3780141,43.4781656 39.3361071,42.8717956 38.486056,41.7837798 C38.0470739,41.2219082 37.7451035,40.6414655 37.6156432,40.1646486 C36.366293,41.0812647 34.8845733,41.6997756 33.275286,41.9153791 C33.4168344,42.3467062 33.5017905,42.8985499 33.5017905,43.5 C33.5017905,44.8807119 33.0540753,46 32.5017905,46 C31.9495058,46 31.5017905,44.8807119 31.5017905,43.5 C31.5017905,42.935127 31.5767277,42.4140104 31.7031046,41.9953938 C30.0602271,41.9446546 28.5223956,41.4767958 27.1919592,40.6941666 C27.0320528,41.0426476 26.8039544,41.4171669 26.5175251,41.7837798 C25.667474,42.8717956 24.625567,43.4781656 24.1903606,43.1381452 C23.7551543,42.7981247 24.0914525,41.6404726 24.9415036,40.5524568 C25.2103084,40.2084023 25.4982981,39.9125107 25.7802215,39.6794775 C25.3318368,39.2905801 24.9202479,38.8603774 24.5513752,38.39479 Z M23.366725,36 L23.366725,33.2848189 L20.6619965,33.2848189 L20.6619965,36 L19,36 L19,29.0097493 L20.6619965,29.0097493 L20.6619965,31.8857939 L23.366725,31.8857939 L23.366725,29.0097493 L25.0241681,29.0097493 L25.0241681,36 L23.366725,36 Z M27.9884413,30.4087744 L27.9884413,31.7980501 L31.1029772,31.7980501 L31.1029772,33.1970752 L27.9884413,33.1970752 L27.9884413,34.6009749 L31.5401051,34.6009749 L31.5401051,36 L26.3264448,36 L26.3264448,29.0097493 L31.4399299,29.0097493 L31.4399299,30.4087744 L27.9884413,30.4087744 Z M37.0406305,34.5132312 L37.0406305,36 L32.6101576,36 L32.6101576,29.0097493 L34.2721541,29.0097493 L34.2721541,34.5132312 L37.0406305,34.5132312 Z M43.5383538,36 L43.5292469,31.4568245 L41.9628722,35.3029248 L40.8791594,35.3029248 L39.3127846,31.4568245 L39.3127846,36 L37.8283713,36 L37.8283713,29 L39.6497373,29 L41.4210158,33.1629526 L43.1922942,29 L45,29 L45,36 L43.5383538,36 Z" id="Combined-Shape" fill="#FFFFFF"></path>
                        </g>
                        <g id="cloudfoundry" transform="translate(0.000000, 160.000000)">
                            <rect id="Rectangle-2" stroke="#35839C" stroke-width="4" x="2" y="2" width="60" height="60" rx="8"></rect>
                            <path d="M29.1261643,34.1117711 C29.1261643,34.1117711 29.559786,32.4615993 27.6687133,30.3175805 L27.6084881,30.2453102 C25.7294604,28.0290212 26.0185415,24.7045875 28.2348306,22.8376049 C29.1743445,22.0426316 30.3908945,21.6090099 31.6315345,21.6090099 L31.751985,21.6090099 C34.6548419,21.6090099 37.0156716,23.9577945 37.0156716,26.8606514 C37.0156716,28.1012915 36.5820498,29.3057964 35.7750315,30.2573553 C35.7629865,30.2694003 35.7509414,30.2934904 35.7148063,30.3175805 C34.7150672,31.3173196 34.185085,32.6904553 34.2573553,34.1117711 C37.3408879,33.0518067 39.4126364,30.1730399 39.4367265,26.9088316 C39.4608166,22.8496499 36.1845632,19.3927208 32.1374266,19.2 C32.0892464,19.2 32.0410662,19.2 31.992886,19.2 L31.7038048,19.2 L31.4147236,19.2 C31.3665434,19.2 31.3183633,19.2 31.2701831,19.2 C27.1989564,19.3927208 23.934748,22.861695 23.9467931,26.9088316 C23.9708832,30.1609949 26.0546767,33.0518067 29.1261643,34.1117711" id="Shape" fill="#FFFFFF" fill-rule="nonzero"></path>
                            <path d="M39.075375,40.2186111 C39.2199156,40.1583858 39.3765013,40.1102056 39.5330869,40.0861155 C39.7137626,40.0499804 39.8823933,40.0258903 40.0630691,40.0258903 L40.038979,39.8813497 C40.0269339,39.7729443 39.9907988,39.6645388 39.9546636,39.5561334 L39.8944384,39.3875027 C39.8703483,39.3393225 39.8462582,39.2911423 39.8221681,39.2429621 L39.7498978,39.1104665 C39.569222,39.0863764 39.3765013,39.0381963 39.1958255,38.9900161 C39.0271948,38.9418359 38.8585641,38.8816106 38.7019785,38.8213854 C38.4490325,38.725025 38.2201765,38.5804844 38.0154107,38.3998086 C37.8829151,38.3034482 37.8106448,38.1348176 37.8226899,37.9661869 C37.8347349,37.8939166 37.8708701,37.8336913 37.9190503,37.7734661 C37.9792755,37.7132408 38.0395008,37.6530156 38.1238161,37.6168804 L37.9551854,37.52052 C37.9070052,37.4964299 37.84678,37.4602948 37.7865547,37.4241596 L37.5817889,37.3277992 C37.4372483,37.2555289 37.3047528,37.1953037 37.1843023,37.1471235 L37.0036265,37.0748532 C36.8590859,37.0989433 36.7145454,37.0989433 36.5700048,37.0989433 C36.4134191,37.0989433 36.2568335,37.0989433 36.1002478,37.0868983 C35.7991216,37.0628082 35.5100404,37.014628 35.2330043,36.9423577 C35.1125538,36.9182676 34.9921033,36.8700874 34.8716528,36.8219072 C34.7752924,36.785772 34.6909771,36.7375918 34.6066617,36.6773666 C34.4621211,36.5810062 34.3657607,36.4726007 34.3778058,36.3641953 L34.1609949,36.3280602 C34.0284993,36.3039701 33.7514632,36.2678349 33.5707875,36.2437448 C33.5707875,36.2678349 33.5466974,36.3039701 33.5466974,36.3521502 L33.4985172,36.5689611 C33.4021568,37.0025829 33.6551028,37.4362047 34.0887246,37.5687002 C35.1366439,37.8698265 35.9195721,38.3757185 36.148428,38.9900161 C36.6061399,40.2306561 34.678932,41.4472061 31.7278949,41.4472061 C28.7768578,41.4472061 26.8376049,40.2547462 27.2953168,39.0020611 C27.5121277,38.3998086 28.2709658,37.9059616 29.2827499,37.6048354 C29.7284167,37.4602948 29.9934078,37.014628 29.8970474,36.5569161 L29.8368222,36.2678349 L29.4393356,36.3160151 C29.2586598,36.3401052 29.1020742,36.3641953 28.9695786,36.3882854 L28.7527677,36.4244205 C28.7407227,36.5569161 28.6684524,36.6773666 28.5480019,36.7375918 C28.4636866,36.7978171 28.3914163,36.8459973 28.2950559,36.8821324 C28.1866504,36.9303126 28.0661999,36.9784928 27.9577945,37.014628 C27.8252989,37.0507631 27.6807584,37.0868983 27.5362178,37.1109884 C27.3916772,37.1350785 27.2350915,37.1591686 27.0785059,37.1712136 C26.7773797,37.2073488 26.4762534,37.2073488 26.1630821,37.1712136 L26.1149019,37.1953037 C26.0787668,37.2073488 26.0305866,37.2314389 25.9824064,37.2555289 L25.5969648,37.4362047 C25.4644693,37.508475 25.3319737,37.5807453 25.2356133,37.6409705 L25.1151628,37.7132408 L25.0669826,37.7373309 C25.2597034,37.8336913 25.3681089,37.9541418 25.392199,38.0866374 C25.4403792,38.2191329 25.3801539,38.3757185 25.2476584,38.5202591 C25.163343,38.6045745 25.0669826,38.6768448 24.9706223,38.7491151 C24.8501718,38.8334304 24.7176762,38.9057007 24.5731356,38.9538809 C24.2358742,39.1104665 23.8865678,39.218872 23.5252163,39.2790972 C23.5011262,39.3272774 23.4770361,39.3754576 23.4649911,39.4236378 L23.3565856,39.7368091 L23.3084054,40.0620254 C23.3204505,40.0981606 23.3204505,40.1463408 23.3204505,40.206566 C23.6697569,40.206566 24.0311084,40.2667913 24.3563247,40.3872418 C24.6213158,40.4595121 24.8381267,40.6281428 25.0067574,40.8329086 C25.1392529,41.0376744 25.151298,41.2785754 25.0669826,41.5074314 C24.9585772,41.8085576 24.7417663,42.0735487 24.4767752,42.2662695 L24.5249554,42.3144497 L24.669496,42.4228551 C24.8019916,42.5071705 24.9585772,42.639666 25.151298,42.7480714 L25.7053703,43.0491977 C25.7776406,43.0973779 25.8619559,43.121468 25.9101361,43.1455581 L25.9944514,43.1816932 C26.4521633,43.0010175 26.9339653,42.880567 27.4278123,42.8323868 C27.6687133,42.8082967 27.8975692,42.7962516 28.1384702,42.8203417 C28.3673262,42.8323868 28.6082272,42.8564769 28.8370831,42.9046571 C29.053894,42.9528373 29.2586598,43.0251076 29.4634257,43.0973779 C29.6441014,43.1816932 29.8247771,43.2780536 29.9813628,43.3864591 C30.2945341,43.5912249 30.52339,43.8923511 30.6558855,44.2416576 L31.0654172,44.2537026 C31.3183633,44.2657477 31.6435796,44.2777927 31.980841,44.2657477 C32.3181023,44.2537026 32.6433187,44.2537026 32.8842197,44.2296125 L33.2937513,44.1934774 C33.3298865,44.0248467 33.4021568,43.856216 33.5105622,43.7237204 C33.5587424,43.6514501 33.6189677,43.5791798 33.6791929,43.5189546 C33.7394182,43.4466843 33.8116885,43.3864591 33.8839588,43.3262338 C34.0284993,43.2057833 34.19713,43.0973779 34.3778058,43.0251076 C34.5705266,42.9287472 34.7752924,42.8564769 34.9800582,42.8082967 C35.1968691,42.7601165 35.4257251,42.7239813 35.654581,42.6998912 C35.895482,42.6878462 36.1243379,42.6878462 36.3652389,42.6998912 C36.8590859,42.7360264 37.3408879,42.8323868 37.8106448,43.0130625 L38.0635909,42.8685219 C38.2442666,42.7721615 38.4128973,42.6758011 38.5694829,42.5553507 C38.7260686,42.4349002 38.9067443,42.3264947 39.0031047,42.2301343 L39.1717354,42.0735487 C38.8946993,41.8928729 38.6658433,41.6399269 38.5092577,41.3388007 C38.4610775,41.2303952 38.4369874,41.1099447 38.4369874,41.0015393 C38.4249424,40.8931338 38.4490325,40.7847284 38.5092577,40.688368 C38.593573,40.4836022 38.822429,40.3390616 39.075375,40.2186111" id="Shape" fill="#FFFFFF" fill-rule="nonzero"></path>
                            <path d="M27.7891638,26.8847415 C27.7771187,27.8483454 28.2468757,28.727634 29.0057138,29.3419315 C29.9452276,30.1007696 30.7040657,31.642536 30.7522459,33.3288429 C30.8004261,35.1958255 30.6679306,37.3639344 30.5956603,38.4600339 C29.5959212,38.6045745 28.8852633,38.9418359 28.8852633,39.3272774 C28.8852633,39.8452146 30.1259034,40.447467 31.6676697,40.447467 C33.209436,40.447467 34.4500761,39.8452146 34.4500761,39.3272774 C34.4500761,38.9418359 33.7514632,38.6045745 32.7396791,38.4600339 C32.6553637,37.3639344 32.5349132,35.1958255 32.5830934,33.3288429 C32.6312736,31.642536 33.4021568,30.1007696 34.3296256,29.3419315 C35.0884637,28.727634 35.5582206,27.8483454 35.5461756,26.8847415 C35.5341305,25.0418489 33.7875984,23.5603079 31.6556246,23.5603079 C29.5236509,23.5603079 27.8012088,25.0418489 27.7891638,26.8847415" id="Shape" fill="#FFFFFF" fill-rule="nonzero"></path>
                        </g>
                        <text id="Choose-an-export-for" font-family="TitilliumWeb-Regular, Titillium Web" font-size="14" font-weight="normal" fill="#C3C6C8">
                            <tspan x="0" y="264">Choose an export format</tspan>
                        </text>
                        <g id="mesos" transform="translate(80.000000, 44.000000)">
                            <rect id="Rectangle-2" stroke="#35839C" stroke-width="4" x="2" y="2" width="60" height="60" rx="8"></rect>
                            <g id="Group-9" transform="translate(20.800000, 20.000000)" fill="#FFFFFF">
                                <polygon id="Fill-4" points="16.6613434 14.7979276 21.135703 12.2411507 21.135703 17.3547045"></polygon>
                                <path d="M16.7679823,8.72536933 L18.4725003,7.7676433 L20.9227448,6.27512477 C21.0292772,6.16965772 21.1358096,6.16965772 21.1358096,6.38165715 L21.1358096,11.0690815 C21.1358096,11.1756139 21.1358096,11.2821463 20.9227448,11.1756139 L16.7679823,8.83296702 L16.7679823,8.72536933 Z" id="Fill-6"></path>
                                <path d="M15.5960197,8.72536933 L13.678437,9.79069305 L11.3347248,11.1756139 C11.1216601,11.2821463 11.1216601,11.2821463 11.1216601,11.0690815 L11.1216601,6.38165715 C11.1216601,6.27512477 11.1216601,6.16965772 11.3347248,6.27512477 L15.4894873,8.61883696 L15.5960197,8.72536933 Z" id="Fill-8"></path>
                                <polygon id="Fill-10" points="11.2280859 12.2407245 15.5959132 14.9040338 11.2280859 17.4608108"></polygon>
                                <polygon id="Fill-12" points="11.2280859 5.21001412 11.2280859 0.0964602662 15.5959132 2.65323719"></polygon>
                                <polygon id="Fill-14" points="15.5960197 20.8704859 11.2281925 23.4261975 11.2281925 18.3137089"></polygon>
                                <path d="M5.15552766,8.72536933 L3.34447733,9.79069305 L0.89423278,11.1756139 C0.787700408,11.2821463 0.681168037,11.2821463 0.681168037,11.0690815 L0.681168037,6.16965772 L5.15552766,8.72536933 Z" id="Fill-16"></path>
                                <path d="M5.15552766,14.7979276 L3.98367157,15.4371218 L1.00076515,17.1416398 C0.89423278,17.1416398 0.787700408,17.3547045 0.787700408,17.0351074 L0.787700408,12.2411507 L0.787700408,12.1346183 L5.15552766,14.7979276 Z" id="Fill-18"></path>
                                <path d="M10.5887852,12.2407245 L10.5887852,17.142279 C10.5887852,17.247746 10.5887852,17.247746 10.4822528,17.247746 L6.22095791,14.7975015 L10.5887852,12.2407245 Z" id="Fill-20"></path>
                                <polygon id="Fill-22" points="6.22085138 20.8704859 10.5886786 18.3137089 10.5886786 23.4261975"></polygon>
                                <path d="M6.22085138,2.65281106 L10.5886786,0.0970994605 L10.5886786,0.310164204 L10.5886786,4.99652325 C10.5886786,5.20958799 10.5886786,5.20958799 10.3756139,5.10412094 L6.32738375,2.76040876 L6.22085138,2.65281106 Z" id="Fill-24"></path>
                                <path d="M6.32749028,8.72536933 L10.6953175,6.16965772 L10.6953175,6.38165715 L10.6953175,11.0690815 C10.6953175,11.2821463 10.6953175,11.2821463 10.4822528,11.1756139 L6.43402265,8.83296702 L6.32749028,8.72536933 Z" id="Fill-26"></path>
                                <path d="M16.4480656,3.18547292 L20.8158929,5.74224985 C20.6028281,5.84878222 20.4962957,5.95637992 20.283231,6.06184696 L16.554598,8.1924944 C16.4480656,8.3000921 16.3415332,8.3000921 16.3415332,8.08702735 L16.3415332,3.29307062 C16.4480656,3.29307062 16.4480656,3.18547292 16.4480656,3.18547292" id="Fill-28"></path>
                                <polygon id="Fill-30" points="16.4480656 14.371372 16.4480656 9.25781812 20.9224252 11.8156604"></polygon>
                                <polygon id="Fill-32" points="16.4480656 15.3305895 20.9224252 17.8873664 16.4480656 20.4441433"></polygon>
                                <path d="M6.00810623,3.18547292 L10.3759335,5.74224985 L9.41714213,6.27491171 L6.22117097,8.1924944 C6.1146386,8.1924944 6.00810623,8.3000921 6.00810623,8.08702735 L6.00810623,3.18547292 Z" id="Fill-34"></path>
                                <polygon id="Fill-36" points="6.00810623 15.3305895 10.3759335 17.8873664 6.00810623 20.4441433"></polygon>
                                <path d="M11.54747,5.74267598 L15.9152972,3.18589905 L15.9152972,8.08638816 C15.9152972,8.2994529 15.9152972,8.2994529 15.7022325,8.19292053 L11.7605347,5.84920835 L11.54747,5.74267598 Z" id="Fill-38"></path>
                                <polygon id="Fill-40" points="10.2694011 11.7080627 5.90157386 14.2648396 5.90157386 9.15235107"></polygon>
                                <polygon id="Fill-42" points="15.9154038 15.3305895 15.9154038 20.4441433 11.5475765 17.8873664"></polygon>
                                <polygon id="Fill-44" points="15.9154038 9.25803119 15.9154038 14.371585 11.5475765 11.8148081"></polygon>
                                <path d="M1.00087168,5.74267598 L5.36869893,3.18589905 L5.36869893,8.08638816 C5.36869893,8.19292053 5.36869893,8.2994529 5.15563419,8.19292053 L1.00087168,5.74267598 Z" id="Fill-46"></path>
                                <path d="M5.36880547,20.4439302 L1.00097822,17.8882186 C1.00097822,17.7806209 1.10751059,17.7806209 1.10751059,17.7806209 L5.15574072,15.4369088 C5.36880547,15.3303764 5.36880547,15.3303764 5.36880547,15.5434411 L5.36880547,20.2308655 L5.36880547,20.4439302 Z" id="Fill-48"></path>
                                <path d="M5.36880547,9.25803119 L5.36880547,14.1595856 C5.36880547,14.2650527 5.36880547,14.371585 5.15574072,14.2650527 L1.10751059,11.9213405 L1.00097822,11.8148081 L5.36880547,9.25803119 Z" id="Fill-50"></path>
                            </g>
                        </g>
                    </g>
                    <g id="infographic/enterpris-run" transform="translate(664.000000, 40.000000)">
                        <g id="run">
                            <g id="app" transform="translate(80.000000, 0.000000)">
                                <rect id="Rectangle" stroke="#35839C" stroke-width="4" fill="#28AFA4" x="-2" y="-2" width="68" height="68" rx="4"></rect>
                                <circle id="Oval" fill="#5C6670" cx="32" cy="32" r="21"></circle>
                                <circle id="Oval" fill="#FFFFFF" cx="32" cy="32" r="18"></circle>
                            </g>
                            <g id="platform" transform="translate(0.000000, 88.000000)" fill="#FFFFFF">
                                <g id="aws" transform="translate(160.000000, 0.000000)">
                                    <circle id="Oval-2-Copy" fill-opacity="0.1" cx="32" cy="32" r="32"></circle>
                                    <path d="M21.3136138,23.0166273 C20.9185982,23.0601324 20.6874277,23.1063378 20.2496635,23.2286021 C19.6447772,23.3978219 19.0686384,23.6435506 18.9399455,23.7874174 C18.7522684,23.9969919 18.7659718,24.8801452 18.9576706,24.9286009 C19.0416784,24.9499034 19.2750832,24.9189998 19.3251304,24.8799952 C19.3431534,24.8660436 19.4002012,24.8394905 19.451738,24.8210383 C19.5034236,24.8025862 19.651331,24.7491799 19.7803218,24.7022244 C21.232287,24.1740126 22.6738258,24.2083667 23.2866063,24.7859342 C23.4409186,24.9313012 23.6291915,25.2452879 23.6291915,25.357051 C23.6291915,25.3818039 23.639618,25.4125575 23.6522787,25.425309 C23.7391166,25.5127692 23.8411474,27.0713015 23.764885,27.1481105 C23.7485005,27.1647624 23.6875799,27.1625121 23.6169776,27.1430099 C23.4802414,27.1049054 23.2602422,27.0617004 22.9878125,27.0195454 C22.8844412,27.0034935 22.7225324,26.9758903 22.6279491,26.9580382 C21.7850407,26.7997697 20.6212939,26.8830295 19.9837876,27.1475104 C19.7161243,27.2585234 19.6508842,27.2931774 19.4152452,27.4494957 C18.5662298,28.0134116 18.1667457,28.8794629 18.2540305,29.9667901 C18.2757772,30.2365216 18.3545718,30.6370685 18.4061085,30.7389304 C18.4192161,30.7648834 18.4752213,30.880997 18.5306307,30.9968105 C19.3284073,32.668006 22.0001246,32.779019 23.5882302,31.2069851 C23.8876199,30.9105505 23.8622983,30.9052998 24.0712753,31.3077969 C24.3855599,31.9131177 24.6621602,32.163947 24.9322067,32.0889383 C25.0220236,32.0638853 25.5294964,31.7566494 25.6006946,31.6841909 C25.6093337,31.6754899 25.6684668,31.6291345 25.7323664,31.5811289 C25.9105107,31.4474632 25.9166176,31.3385505 25.7645396,31.0167629 C25.5235384,30.5071533 25.5384334,30.5442076 25.4377432,30.2030677 C25.417486,30.1348097 25.3958882,29.2290038 25.3806953,27.8236395 C25.3500116,24.9859076 25.3187321,24.7908848 24.7762559,24.057449 C24.5148486,23.7038577 23.863192,23.2380532 23.6302341,23.2380532 C23.6022315,23.2380532 23.5658877,23.2265018 23.5495032,23.2124002 C23.5331187,23.1984486 23.4071069,23.1622943 23.2694771,23.1322908 C23.1316983,23.1021373 22.9556393,23.0631327 22.8781853,23.0454307 C22.6937851,23.0034258 21.6138971,22.9834734 21.3136138,23.0166273 M41.9507943,23.0169273 C41.8302937,23.031479 41.6330838,23.0674832 41.5127322,23.0967367 C41.3922316,23.1261401 41.2547506,23.1573438 41.2072356,23.1661948 C41.1595716,23.1750458 41.1130991,23.1948481 41.1035663,23.2101499 C41.0941825,23.2254517 41.0649883,23.2380532 41.0386241,23.2380532 C40.8519897,23.2380532 40.2199945,23.638 39.9235839,23.9437357 C39.2586708,24.6293159 39.0547582,25.6516855 39.4189411,26.4731815 C39.4432199,26.5277879 39.4630303,26.5829944 39.4630303,26.5957459 C39.4630303,26.7372124 40.0348496,27.3978897 40.3069814,27.5710099 C40.672058,27.802937 41.0258144,27.9526545 41.6847695,28.1539781 C41.8654459,28.2091845 42.0415049,28.2654411 42.0759124,28.2787927 C42.1103198,28.2922943 42.2229261,28.3287485 42.3262974,28.3598022 C42.6291129,28.4510128 42.974975,28.5675765 43.0929434,28.6184324 C43.2591717,28.6899908 43.5758395,28.8526098 43.5935646,28.8754125 C43.6022037,28.8865138 43.6611879,28.9345194 43.7246406,28.9822249 C44.0973137,29.2618577 44.1455735,30.0107452 43.819075,30.4474463 C43.6693802,30.6477197 43.3050483,30.8502434 42.8894776,30.9639567 C42.6732021,31.0232136 41.337269,31.0236637 41.0745211,30.9645568 C40.4477392,30.8236903 40.1067925,30.718528 39.6870512,30.5367067 C39.2101131,30.3301326 39.1188067,30.3980905 39.1194025,30.9594562 C39.1199983,31.4663655 39.1838979,31.5953805 39.5305047,31.7887532 C40.2143344,32.1703978 41.5536934,32.4044252 42.5847258,32.3225156 C43.7676872,32.2286046 44.5143739,31.8744132 45.152327,31.1048232 C45.596943,30.5685105 45.7896843,29.427027 45.5361713,28.8322074 C45.2339516,28.1230745 44.9219013,27.7906356 44.2651804,27.4784491 C44.0937389,27.3969896 43.9318302,27.3189804 43.905466,27.3051788 C43.8791018,27.2913772 43.8090953,27.2694746 43.7501111,27.2562731 C43.6909779,27.2432216 43.6209714,27.221319 43.5946072,27.2075174 C43.5682431,27.1937158 43.3987379,27.1374592 43.2180615,27.0824028 C43.037385,27.0274964 42.8613261,26.9712398 42.8269186,26.9577382 C42.7925111,26.9440866 42.560149,26.8660775 42.3106577,26.7843179 C41.2335997,26.4317767 40.8399247,26.0826859 40.8399247,25.4805154 C40.8399247,24.989358 41.1128012,24.6096636 41.5752912,24.4579959 C41.6612354,24.4296425 41.7809912,24.3897379 41.8411671,24.3690355 C41.9927982,24.3169794 43.0838574,24.2947768 43.3588193,24.3381318 C43.7496642,24.399789 44.1667244,24.4982006 44.2063451,24.5381052 C44.2193038,24.5510067 44.2495407,24.561658 44.2735216,24.561658 C44.2976515,24.561658 44.3961075,24.5979622 44.4924782,24.6423674 C45.0841079,24.9149493 45.1581361,24.8744446 45.1581361,24.2784249 C45.1581361,23.5797932 44.8891322,23.3652681 43.7186826,23.1307906 C43.5896919,23.1049876 43.4069301,23.0683833 43.3124958,23.0494811 C43.0856449,23.0040258 42.2269477,22.9836234 41.9507943,23.0169273 M26.5393779,23.2590556 C26.3752349,23.2938597 26.3295072,23.5626912 26.4409219,23.8379733 C26.4582001,23.8807283 26.5162906,24.0644998 26.5699126,24.2464711 C26.6235347,24.4285924 26.702925,24.6980239 26.7462695,24.8453412 C26.7897629,24.9926584 26.8436829,25.1699791 26.8664722,25.2392872 C26.8891126,25.3085953 26.9315634,25.4505119 26.9607576,25.5544741 C26.9899518,25.6584362 27.0255509,25.7790503 27.039999,25.8224054 C27.0544472,25.8656105 27.1104524,26.049982 27.1645213,26.2321033 C27.2185902,26.4140746 27.2748933,26.5984462 27.2896393,26.6418012 C27.3137693,26.7121595 27.4175875,27.0614003 27.5616222,27.5557081 C27.5893269,27.6511193 27.6229896,27.7574817 27.6362462,27.7921358 C27.6495027,27.8267898 27.6828675,27.9331523 27.7104233,28.0285634 C27.8234764,28.4192091 27.8636929,28.5516746 27.8875249,28.6115316 C27.9013773,28.6461857 27.9222303,28.7237447 27.9341463,28.7839018 C27.9459133,28.8439088 27.9664684,28.9148671 27.9800229,28.9414202 C27.9934284,28.9679733 28.0351344,29.0960883 28.0726698,29.2261535 C28.1365694,29.4472793 28.1602525,29.5281388 28.2733056,29.9115836 C28.2975844,29.9939433 28.3552281,30.1819152 28.4012537,30.3292325 C28.4474282,30.4765497 28.5037313,30.6609213 28.5263717,30.7389304 C28.5491611,30.8169395 28.5986125,30.9870594 28.6365948,31.1171246 C28.6744281,31.2470398 28.7168789,31.3817556 28.7308802,31.4165596 C28.7448815,31.4512137 28.7812253,31.5632768 28.8114622,31.6654387 C28.9289838,32.0622351 29.1142777,32.1247925 30.0525141,32.0844377 C30.6810834,32.0574346 30.6935952,32.043633 30.8890177,31.1643801 C30.923723,31.0083619 30.9648333,30.8310412 30.980622,30.7704341 C30.9964107,30.709677 31.0245622,30.6010643 31.0434789,30.5289058 C31.0622466,30.4567474 31.090845,30.3362833 31.1067827,30.2609745 C31.1228693,30.1858157 31.1586173,30.0321977 31.1861731,29.9195346 C31.2137288,29.8068714 31.2572222,29.6224998 31.2828417,29.5096866 C31.3083121,29.3970235 31.3416769,29.2552569 31.3567209,29.1946498 C31.3717648,29.1338927 31.4073639,28.9850753 31.4359623,28.8637111 C31.4645607,28.7423469 31.5087989,28.5579753 31.5344183,28.4540132 C31.5598888,28.349901 31.5932536,28.2081344 31.6084465,28.1388263 C31.6236394,28.0695182 31.6592385,27.9205508 31.68739,27.8078876 C31.7155416,27.6952244 31.7511407,27.5392062 31.7666315,27.4611971 C31.7819733,27.3831879 31.8087843,27.2697747 31.8259136,27.2090176 C31.8713434,27.0484988 31.9835028,26.5925955 32.0314647,26.3738699 C32.0690001,26.2025499 32.1327507,25.9290679 32.2043957,25.6332333 C32.2189928,25.5726262 32.2474423,25.4520121 32.2674016,25.365302 C32.3405361,25.0484649 32.361687,25.0934702 32.5788562,26.0271794 C32.6311376,26.2525057 32.6881855,26.4865331 32.7056127,26.5472902 C32.7228909,26.6078973 32.7499998,26.7213105 32.7657885,26.7993197 C32.7815772,26.8773288 32.8171763,27.033347 32.844881,27.1460102 C32.925463,27.4743986 32.9458691,27.5594586 32.9959164,27.7763839 C33.0219826,27.8890471 33.0732214,28.101772 33.1097142,28.2490892 C33.1463559,28.3964064 33.1974458,28.6091313 33.2235121,28.7217945 C33.2494294,28.8344577 33.2839858,28.9699235 33.3000724,29.0228797 C33.316159,29.0758359 33.3425232,29.1821983 33.3586098,29.2593074 C33.3746964,29.3364164 33.411487,29.4916845 33.4405323,29.6043477 C33.4695776,29.7170109 33.5045808,29.8587775 33.5182842,29.9195346 C33.5567134,30.0901045 33.6422107,30.4508967 33.6935985,30.6601712 C33.8017362,31.1001726 33.8849993,31.4516637 33.9319186,31.6658888 C33.9920944,31.9402709 34.1383634,32.0512839 34.4767779,32.0796372 C34.8793899,32.1133911 35.5535379,32.0794872 35.6685274,32.0196302 C35.7535779,31.975225 35.9271047,31.684641 35.9271047,31.5863795 C35.9271047,31.5680774 35.9606185,31.4515137 36.0017287,31.3272992 C36.0428389,31.2029347 36.0976525,31.0304145 36.1234209,30.9437043 C36.1493382,30.8571442 36.24839,30.5379069 36.343718,30.2345714 C36.4388971,29.9312359 36.5753354,29.4916845 36.6466825,29.2576572 C36.7181785,29.0236298 36.7954836,28.7755008 36.8185708,28.7060427 C36.862958,28.5734271 37.0901068,27.8396913 37.170093,27.57146 C37.1958614,27.4848998 37.2488876,27.3146299 37.2877635,27.1932657 C37.3266395,27.0719015 37.4166054,26.784768 37.4876545,26.5550911 C37.5587037,26.3254142 37.6748848,25.9496203 37.745934,25.7199434 C37.8171321,25.4902666 37.906949,25.202983 37.945676,25.0817688 C37.984552,24.9604046 38.062006,24.7121256 38.1178623,24.5301543 C38.1737185,24.348183 38.2532579,24.100054 38.294517,23.9786898 C38.5234533,23.304511 38.4811515,23.253805 37.6896308,23.253805 C36.7898235,23.253805 36.821103,23.2298022 36.5948478,24.0889527 C36.5515034,24.253672 36.4974345,24.4663968 36.4746451,24.561658 C36.4518558,24.6570691 36.3979359,24.869794 36.3548893,25.0345133 C36.3118427,25.1990825 36.1967043,25.6458348 36.099291,26.0271794 C36.0018776,26.408524 35.9032727,26.7915188 35.8801854,26.8780789 C35.8572471,26.964789 35.779942,27.2625738 35.708595,27.5399563 C35.6370989,27.8173387 35.5432604,28.179031 35.5000649,28.3436003 C35.4568693,28.5083195 35.4028005,28.7210444 35.3798622,28.8164556 C35.3567749,28.9117167 35.3004718,29.1314924 35.2545952,29.3049127 C35.2087185,29.4781829 35.1522665,29.6981087 35.1288813,29.7933698 C34.9918472,30.3559356 34.9796333,30.3922398 34.9272029,30.3922398 C34.9129037,30.3922398 34.894136,30.3461845 34.8853479,30.2897779 C34.8767088,30.2335213 34.8460251,30.0952051 34.8174267,29.9825419 C34.7888283,29.8698788 34.7529313,29.7209113 34.7375895,29.6516032 C34.7223966,29.5822951 34.6896276,29.4403785 34.6647529,29.3364164 C34.6398782,29.2324542 34.5953422,29.0408818 34.5657011,28.9109666 C34.536209,28.7809014 34.5000141,28.6248832 34.4852681,28.5642761 C34.470522,28.503669 34.437604,28.3617524 34.4119846,28.2490892 C34.3863652,28.136426 34.3446592,27.9591053 34.3191887,27.8551431 C34.2773338,27.6838231 34.2222222,27.4460453 34.1438745,27.0987547 C34.1282348,27.0294466 34.094572,26.88753 34.0689526,26.7835678 C34.0162243,26.5681426 33.9323654,26.2132011 33.8903615,26.0271794 C33.8747217,25.9578713 33.8400164,25.8089038 33.8132054,25.6962407 C33.7865433,25.5835775 33.751689,25.4275592 33.7359003,25.3495501 C33.7201116,25.271541 33.6933006,25.1581277 33.6766182,25.0975206 C33.6426575,24.9752563 33.5763748,24.6933734 33.5023466,24.356884 C33.4756845,24.2355198 33.4411281,24.0865524 33.4256373,24.0259453 C33.2217247,23.2296522 33.2540468,23.253505 32.3753904,23.2544051 C31.5875935,23.2553052 31.4737956,23.3115618 31.404236,23.7349113 C31.3936605,23.7995689 31.3732543,23.8880792 31.3589551,23.9314343 C31.3446559,23.9746393 31.3096527,24.1165559 31.2810543,24.2464711 C31.2149204,24.5468062 31.0531607,25.2365869 31.0148805,25.3810538 C30.9987939,25.4418109 30.9426397,25.6828891 30.8902093,25.9169165 C30.8377789,26.1509438 30.7817736,26.392022 30.7659849,26.4526291 C30.7256195,26.6065471 30.5769673,27.2454718 30.4983217,27.6029636 C30.4716596,27.7243278 30.4366563,27.8732953 30.4207187,27.9339024 C30.404781,27.9946595 30.3687351,28.1434769 30.3408814,28.2648411 C30.3128788,28.3862052 30.2771308,28.5351727 30.2614911,28.5957798 C30.2458513,28.6563868 30.2111459,28.8053543 30.1844839,28.9267185 C30.1047956,29.2891608 30.0434282,29.5512415 30.0148297,29.6516032 C30.0000837,29.7035093 29.963293,29.8595275 29.9330562,29.9982938 C29.835196,30.4472963 29.8095766,30.4058914 29.5731928,29.4151756 C29.4885892,29.0605341 29.4424146,28.8763126 29.3244462,28.4225095 C29.2523544,28.1451271 29.1749003,27.8401414 29.1524089,27.7448802 C29.089403,27.4784491 28.9829037,27.0547995 28.9304733,26.862327 C28.904556,26.7670659 28.8710422,26.639401 28.8559982,26.5787939 C28.8409543,26.5180368 28.8114622,26.4046235 28.7903113,26.3266144 C28.7691604,26.2486053 28.7407109,26.135192 28.7268585,26.0744349 C28.6756197,25.8471583 28.6068048,25.5714261 28.4796014,25.0817688 C28.4073606,24.8043864 28.3300556,24.4994007 28.3074151,24.4041396 C28.2062781,23.9761395 28.1271856,23.6873557 28.0860753,23.595695 C28.0614986,23.5410886 28.0413903,23.4815317 28.0413903,23.4633795 C28.0413903,23.29611 27.0198908,23.1570437 26.5393779,23.2590556 M22.6123094,28.0603671 C22.9825993,28.0909707 23.1123348,28.1110731 23.5588871,28.2075344 L23.785738,28.2564401 L23.785738,28.6590872 C23.785738,29.4943848 23.6303831,29.931686 23.177128,30.3725875 C22.3698187,31.1577794 20.7578811,31.2690924 20.2143623,30.5770615 C19.9994273,30.3034295 19.9374641,30.085604 19.9376131,29.6043477 C19.9380599,28.3781043 20.7537105,27.9073492 22.6123094,28.0603671 Z M44.141254,34.318499 C45.2199503,34.2085361 46.5138796,34.3629042 46.8323348,34.6398366 C47.1719409,34.9350711 46.9739863,36.456399 46.4337444,37.7039449 C45.9232925,38.8829328 44.9175817,40.0415183 44.6441094,39.7660861 C44.5671022,39.688527 44.6771763,39.2843797 44.9096874,38.7912721 C45.3589208,37.8385107 45.7058255,36.1878676 45.5321497,35.8299258 C45.3446215,35.4437806 44.2848418,35.3407186 42.4621399,35.5315409 C42.1292365,35.5663449 41.7783101,35.6030992 41.6820884,35.6133004 C41.2319613,35.660706 41.2551975,35.370422 41.7252839,35.0753375 C42.369195,34.6711903 43.1827603,34.4163104 44.141254,34.318499 Z M17.0579614,34.8045558 C17.1716103,34.6900925 17.3146024,34.7208461 17.6969572,34.9419719 C19.6772483,36.0876559 21.5711484,36.9115523 23.7700983,37.5840809 C24.7816181,37.8935671 25.9495356,38.1790505 26.8992412,38.3490204 C27.03702,38.3737733 27.2723611,38.4159282 27.4223539,38.4429313 C28.2490267,38.5912987 29.3481293,38.7164133 30.6119706,38.8061238 C31.2003233,38.8478287 33.2428756,38.8481287 33.8138012,38.8067239 C34.7350573,38.739666 35.6866993,38.6408045 36.2242601,38.5560446 C36.9147926,38.4472819 37.0545077,38.4241792 37.1943719,38.3962759 C37.280465,38.3788739 37.5972818,38.3154164 37.8984588,38.2551094 C39.6609849,37.9019681 41.6161035,37.2928969 43.3539039,36.5557106 C43.80418,36.3647383 44.0165828,36.3726892 44.1835558,36.5864642 C44.4023634,36.866697 44.2952683,37.0567692 43.6619327,37.5116224 C42.0878284,38.6423047 39.7939974,39.7026287 37.7575521,40.2411916 C36.3054379,40.6250865 35.5373024,40.7736039 34.0652289,40.9549751 C33.5803964,41.0146821 30.1430758,41.0151322 29.65303,40.9555752 C29.0727206,40.8850669 28.6287004,40.8250599 28.448173,40.7931062 C27.8566922,40.6880939 27.6818249,40.6553901 27.4156511,40.6006337 C23.7623528,39.8487457 20.1869555,38.0285829 17.4105263,35.507238 C17.2806418,35.3894743 17.1653544,35.2859621 17.1541832,35.2772611 C16.9992751,35.156647 16.9498237,34.9134686 17.0579614,34.8045558 Z" id="Combined-Shape"></path>
                                </g>
                                <g id="kubernetes">
                                    <circle id="Oval-2" fill-opacity="0.1" cx="32" cy="32" r="32"></circle>
                                    <path d="M32.0452547,20.2284658 C32.2750616,20.2284658 32.5048686,20.3424708 32.849579,20.2284658 L41.1226292,24.2186378 C41.5833921,24.3326428 41.9281025,24.7886624 42.041857,25.243542 L44.1101195,34.1359253 C44.226172,34.593085 44.1101195,35.1631096 43.7654091,35.5039843 L38.0202354,42.573429 C37.6755249,42.9143037 37.215911,43.1434536 36.7574462,43.1434536 L27.5651682,43.1434536 C27.1044053,43.1434536 26.6459404,42.9143037 26.3000809,42.573429 L20.5549072,35.5039843 L20.4400037,35.3911194 C20.2101968,35.0491047 20.0964423,34.7059499 20.2101968,34.2510703 L22.2784593,25.358687 C22.3945118,24.9026673 22.7380732,24.5606526 23.1988361,24.3326428 L31.4707373,20.3424708 C31.5867898,20.3424708 31.8165968,20.2284658 32.0452547,20.2284658 Z M32.0452547,23.3061425 C31.7005442,23.3061425 31.5867898,23.5341523 31.5867898,23.8761671 L31.5867898,23.990172 L31.5867898,24.4461916 L31.5867898,25.358231 C31.5867898,25.4722359 31.4707373,25.5862408 31.4707373,25.5862408 L31.4707373,25.8142506 C31.1260269,25.8142506 30.8962199,25.9282555 30.5515095,25.9282555 C29.2887203,26.1562654 28.1396856,26.8402948 27.3342122,27.7523342 L27.2204578,27.6383292 L26.9906508,27.6383292 C26.7596948,27.4103194 26.5298879,27.2963145 26.3000809,27.0683047 C26.1851775,26.9542998 26.071423,26.8402948 25.9553705,26.7262899 L25.8416161,26.612285 C25.7255636,26.4982801 25.6106601,26.4982801 25.4969056,26.4982801 C25.3808531,26.4982801 25.1510462,26.4982801 25.1510462,26.612285 C25.0361427,26.8402948 25.0361427,27.1823096 25.2670987,27.2963145 L25.3808531,27.4103194 L25.8416161,27.6383292 C26.071423,27.7523342 26.3000809,27.980344 26.5298879,28.2083538 C26.6459404,28.3223587 26.6459404,28.4363636 26.6459404,28.4363636 L26.7596948,28.5503686 C25.8416161,29.8044226 25.4969056,31.4004914 25.7255636,32.9965602 L25.4969056,32.9965602 C25.4969056,33.1105651 25.3808531,33.1105651 25.2670987,33.22457 C24.9223883,33.3385749 24.6925813,33.3385749 24.3478709,33.3385749 L23.7733535,33.3385749 C23.5435466,33.4525799 23.4274941,33.6805897 23.4274941,34.0226044 C23.5435466,34.2506143 23.7733535,34.3646192 23.887108,34.3646192 L24.0020114,34.3646192 L24.4616253,34.2506143 C24.6925813,34.1366093 25.0361427,34.0226044 25.3808531,34.0226044 C25.4969056,34.0226044 25.6106601,34.0226044 25.6106601,34.1366093 L25.8416161,34.1366093 C26.3000809,35.6186732 27.3342122,36.8727273 28.7142029,37.6707617 L28.5981504,37.8987715 L28.5981504,38.1267813 C28.4832469,38.3547912 28.3694925,38.6968059 28.1396856,38.9248157 C28.0236331,39.0388206 27.9087296,39.1528256 27.9087296,39.2668305 L27.9087296,39.3808354 C27.7949751,39.6088452 27.9087296,39.95086 28.1396856,40.0648649 C28.3694925,40.1788698 28.7142029,40.0648649 28.8279574,39.836855 L28.8279574,39.7228501 C28.9440099,39.6088452 28.9440099,39.3808354 28.9440099,39.2668305 C29.0577643,38.9248157 29.1726678,38.6968059 29.2887203,38.3547912 C29.4024747,38.3547912 29.4024747,38.2407862 29.5185273,38.2407862 L29.6322817,38.0127764 C31.1260269,38.582801 32.7358246,38.582801 34.2284207,38.0127764 L34.3433242,38.2407862 C34.4593767,38.2407862 34.5731311,38.3547912 34.5731311,38.3547912 C34.6891836,38.582801 34.8029381,38.9248157 34.9178415,39.1528256 C34.9178415,39.2679705 35.0338941,39.4948403 35.0338941,39.6088452 L35.0338941,39.7228501 C35.1476485,39.95086 35.4923589,40.0648649 35.7221659,39.95086 C35.9519728,39.8379951 36.0668763,39.4948403 35.9519728,39.2679705 C35.8382184,39.1528256 35.8382184,39.0388206 35.7221659,38.9248157 C35.6084114,38.6979459 35.3774554,38.4687961 35.263701,38.1279214 L35.263701,37.8987715 C35.263701,37.7847666 35.1476485,37.7847666 35.1476485,37.6707617 C36.5264902,36.8727273 37.5617705,35.6186732 38.0202354,34.1366093 L38.2500423,34.1366093 C38.3660948,34.0226044 38.4809983,34.0226044 38.4809983,34.0226044 C38.8245597,34.1366093 39.0555157,34.1366093 39.3990771,34.2506143 L39.85984,34.3646192 L39.9735944,34.3646192 C40.2045504,34.3646192 40.5481118,34.1366093 40.5481118,33.9085995 C40.5481118,33.6805897 40.4343574,33.4525799 40.2045504,33.4525799 L39.6300331,33.4525799 C39.2853226,33.4525799 39.0555157,33.3385749 38.7108053,33.3385749 C38.5947527,33.3385749 38.5947527,33.22457 38.4809983,33.1105651 L38.2500423,33.1105651 C38.4809983,31.5144963 38.1362879,30.0324324 37.215911,28.6643735 L37.3319636,28.5503686 C37.3319636,28.4363636 37.3319636,28.3223587 37.445718,28.3223587 C37.6755249,28.0943489 37.9064809,27.980344 38.1362879,27.7523342 L38.5947527,27.5243243 L38.7108053,27.4103194 C38.9394632,27.1823096 38.9394632,26.9542998 38.8245597,26.7262899 C38.5947527,26.4982801 38.3649458,26.4982801 38.1362879,26.612285 L38.0202354,26.7262899 C37.9064809,26.8402948 37.7904284,26.9542998 37.6755249,27.0683047 C37.445718,27.2963145 37.215911,27.5243243 36.9872531,27.6383292 L36.6413937,27.6383292 L36.4127358,27.7523342 C35.3774554,26.612285 33.8848593,25.9282555 32.2750616,25.8142506 L32.2750616,25.5862408 C32.1613072,25.4722359 32.1613072,25.4722359 32.1613072,25.358231 L32.1613072,24.4461916 L32.1613072,23.990172 L32.1613072,23.8761671 C32.1613072,23.5341523 31.9303512,23.3061425 31.7005442,23.3061425 L32.0452547,23.3061425 Z" id="Combined-Shape"></path>
                                    <path d="M32.0452547,34.592629 C32.2750616,34.592629 32.3911141,34.592629 32.5048686,34.8206388 L33.7688068,37.1007371 L33.3103419,37.214742 C32.3911141,37.4427518 31.3558338,37.3287469 30.4377551,37.1007371 L31.7005442,34.8206388 C31.8165968,34.592629 31.9303512,34.592629 32.0452547,34.592629 Z M29.8632377,33.4525799 C30.0930446,33.4525799 30.3217025,33.6805897 30.3217025,33.9085995 L30.3217025,34.0226044 L29.2887203,36.4167076 C28.3694925,35.846683 27.5651682,34.9346437 27.2204578,33.7945946 L29.8632377,33.4525799 Z M34.2284207,33.4525799 L36.9872531,33.9085995 C36.6413937,34.9346437 35.8382184,35.846683 34.9178415,36.5307125 L33.9986137,34.1366093 C33.8848593,33.9085995 33.8848593,33.6805897 34.2284207,33.4525799 Z M31.7005442,31.4004914 L32.5048686,31.4004914 L32.9656315,31.970516 L32.849579,32.7685504 L32.1613072,33.1105651 L31.4707373,32.7685504 L31.3558338,31.970516 L31.7005442,31.4004914 Z M36.4127358,29.4624079 C36.9872531,30.3744472 37.215911,31.5144963 37.1010076,32.6545455 L34.5731311,31.970516 C34.3433242,31.8565111 34.2284207,31.6285012 34.2284207,31.4004914 C34.2284207,31.2864865 34.3433242,31.2864865 34.3433242,31.1724816 L36.4127358,29.4624079 Z M27.6789226,29.4624079 L29.6322817,31.1724816 C29.8632377,31.2864865 29.8632377,31.6285012 29.6322817,31.7425061 C29.5185273,31.8565111 29.5185273,31.8565111 29.4024747,31.8565111 L26.8745983,32.5405405 C26.8745983,31.6285012 27.1044053,30.4884521 27.6789226,29.4624079 Z M32.7358246,27.1823096 C33.8848593,27.2963145 34.9178415,27.8663391 35.6084114,28.6643735 L33.4240964,30.1464373 C33.1942894,30.2604423 32.9656315,30.2604423 32.849579,30.0324324 C32.849579,29.9184275 32.7358246,29.9184275 32.7358246,29.8044226 L32.7358246,27.1823096 Z M31.4707373,27.1823096 L31.3558338,29.8044226 C31.3558338,30.0324324 31.1260269,30.2604423 30.8962199,30.2604423 C30.7813164,30.2604423 30.667562,30.2604423 30.667562,30.1464373 L28.4832469,28.6643735 C29.1726678,27.980344 29.9769921,27.5243243 30.8962199,27.2963145 L31.4707373,27.1823096 Z" id="Fill-6"></path>
                                </g>
                                <g id="azure" transform="translate(80.000000, 0.000000)">
                                    <circle id="Oval-2-Copy-2" fill-opacity="0.1" cx="32" cy="32" r="32"></circle>
                                    <path d="M36.383346,22.3166464 L47,41 L26,40.7786872 L39.5333836,39.2311363 L32.2416853,30.718564 L36.383346,22.3166464 Z M35.5666416,19 L25.0083769,38.4019198 L19,39.0100572 L26.0583892,27.0150897 L35.5666416,19 Z" id="Combined-Shape"></path>
                                </g>
                            </g>
                            <text id="Run-on-any-platform" font-family="TitilliumWeb-Regular, Titillium Web" font-size="14" font-weight="normal" fill="#C3C6C8">
                                <tspan x="52.059" y="192">Run on any platform</tspan>
                            </text>
                        </g>
                    </g>
                </g>
            </g>
        </g>
    </g>
</svg>